<svg width="141" height="156" viewBox="0 0 141 156" fill="none" xmlns="http://www.w3.org/2000/svg">
<path d="M104.012 28L93.5694 46.1553H100.804C99.3709 54.5504 91.9996 61.0344 83.1949 61.1027C80.8061 61.1027 78.4172 61.717 76.3014 62.9455C73.1617 64.7201 70.9776 67.655 70.0221 71.1359C69.0666 74.6168 69.5443 78.2342 71.3872 81.3738C73.1617 84.5134 76.0966 86.6975 79.5775 87.6531C80.7378 87.9943 81.8981 88.1308 83.0584 88.1308C85.379 88.1308 87.6996 87.5166 89.8155 86.288C92.9551 84.5134 95.1392 81.5786 96.0947 78.0977C97.0503 74.6168 96.5725 70.9994 94.7297 67.8597C94.1154 66.8359 93.4329 65.9486 92.6138 65.1296C100.19 61.7852 105.718 54.6869 106.81 46.2235H114.455L104.012 28ZM84.9695 67.3137C86.8806 67.8597 88.5187 69.0883 89.5425 70.7946C90.5662 72.5009 90.8393 74.5485 90.2932 76.4596C89.7472 78.3707 88.5187 80.0088 86.8123 81.0325C85.106 82.0563 83.0584 82.3293 81.1473 81.7833C79.2363 81.2373 77.5982 80.0088 76.5744 78.3024C75.5506 76.5961 75.2776 74.5485 75.8236 72.6374C76.3696 70.7263 77.5982 69.0883 79.3045 68.0645C80.4648 67.382 81.6934 67.0407 82.9902 67.0407C82.9902 67.0407 82.9902 67.0407 83.0584 67.0407C83.0584 67.0407 83.0584 67.0407 83.1267 67.0407C83.6727 67.0407 84.3552 67.1089 84.9695 67.3137Z" fill="#0E0840"/>
<path d="M112.407 90.3142L92.3405 84.3079L97.1182 104.716L102.374 99.8013C107.083 106.968 106.128 116.728 99.7118 122.803C98.4833 123.963 98.415 125.806 99.5753 127.034C100.736 128.263 102.578 128.331 103.807 127.171C112.68 118.844 113.772 105.262 106.81 95.6379L112.407 90.3142Z" fill="#0E0840"/>
<path d="M54.255 89.0132L69.6801 74.8848L49.7503 68.5373L51.3201 75.5673C42.7202 75.9769 34.8029 70.1754 32.8918 61.5072C32.5505 59.8692 30.9125 58.8454 29.3426 59.2549C27.7046 59.5961 26.6808 61.2342 27.0903 62.804C29.7522 74.6801 40.8091 82.5974 52.6852 81.5053L54.255 89.0132Z" fill="#0E0840"/>
</svg>
